# xmcd
#
# Track frame offsets:
#	150
#	9273
#	17694
#	26482
#	35154
#	42846
#	53358
#	61320
#	69087
#	75987
#	86609
#	94993
#	102540
#	109223
#	117236
#	123053
#	134857
#	143768
#	150635
#	157151
#	163805
#	170820
#	179093
#	185680
#	194154
#	200953
#	206997
#	211891
#	220597
#	227766
#	236075
#	241289
#	249900
#	257588
#	267134
#	274592
#	284055
#	292819
#	301061
#	308436
#
# Disc length: 4217 seconds
#
# Revision: 0
# Processed by: cddbd v1.5.2PL0 Copyright (c) Steve Scherf et al.
# Submitted via: EasyCDDAExtractor 15.2.0.1
#
DISCID=49107728
DTITLE=Alegria de Viver - Mensagens Para Todo o Dia - Vol. II
DYEAR=1900
DGENRE=
TTITLE0=Amar é difícil
TTITLE1=Morte de Deus, dor no mundo
TTITLE2=Renascer das cinzas
TTITLE3=Oração pelos filhos
TTITLE4=Senhor, derrama a tua bênção
TTITLE5=Prece ao pé da lareira
TTITLE6=Alegria para todos os que estão tristes
TTITLE7=Acenda uma luz, com Maria!
TTITLE8=Oração a Nossa Senhora
TTITLE9=Maria, Mãe
TTITLE10=Vem me visitar, Maria!
TTITLE11=Prece pelas mães
TTITLE12=Só para mulheres fenomenais
TTITLE13=Pão da vida
TTITLE14=Creio
TTITLE15=A ti, meu pai!
TTITLE16=Cantiga à vida
TTITLE17=Na doença
TTITLE18=Obrigado, Senhor!
TTITLE19=Prece pelos namorados
TTITLE20=Oração do anoitecer
TTITLE21=Oração pela manhã
TTITLE22=Contemplar o universo!
TTITLE23=Aos jovens
TTITLE24=Ao professor, com carinho!
TTITLE25=Rezar pensar em Deus, amando-o
TTITLE26=Aniversário
TTITLE27=Nas contas do Rosário
TTITLE28=Em tuas mãos
TTITLE29=Senhor, preciso de ti!
TTITLE30=Esperando Jesus
TTITLE31=Passa de mim teu cálice, Senhor!
TTITLE32=O Senhor me fez maravilhoso!
TTITLE33=Mãe Terra
TTITLE34=Prece confiante
TTITLE35=Elegia das mães
TTITLE36=Neste Natal
TTITLE37=Acontece o Natal
TTITLE38=Natal, festa da alegria
TTITLE39=Oração de Ano Novo
EXTD=
EXTT0=
EXTT1=
EXTT2=
EXTT3=
EXTT4=
EXTT5=
EXTT6=
EXTT7=
EXTT8=
EXTT9=
EXTT10=
EXTT11=
EXTT12=
EXTT13=
EXTT14=
EXTT15=
EXTT16=
EXTT17=
EXTT18=
EXTT19=
EXTT20=
EXTT21=
EXTT22=
EXTT23=
EXTT24=
EXTT25=
EXTT26=
EXTT27=
EXTT28=
EXTT29=
EXTT30=
EXTT31=
EXTT32=
EXTT33=
EXTT34=
EXTT35=
EXTT36=
EXTT37=
EXTT38=
EXTT39=
PLAYORDER=
